<mxfile host="app.diagrams.net" modified="2023-03-20T08:05:15.857Z" agent="5.0 (X11; Linux x86_64) AppleWebKit/537.36 (KHTML, like Gecko) Chrome/111.0.0.0 Safari/537.36" etag="C1mZ5mk6IY10Ysk-iSpO" compressed="false" version="21.0.8" type="device">
  <diagram id="1G0bXmXk4xPl8dEr5SHQ" name="Page-1">
    <mxGraphModel dx="1600" dy="746" grid="1" gridSize="10" guides="1" tooltips="1" connect="1" arrows="1" fold="1" page="1" pageScale="1" pageWidth="1600" pageHeight="900" math="0" shadow="0">
      <root>
        <mxCell id="0" />
        <mxCell id="1" parent="0" />
        <mxCell id="JSLHKIPJsOZaojgvG78n-1" value="&lt;font style=&quot;font-size: 18px&quot;&gt;&lt;b&gt;Source Code Repository&lt;br&gt;(CodeCommit/Github)&lt;/b&gt;&lt;/font&gt;" style="rounded=1;whiteSpace=wrap;html=1;" parent="1" vertex="1">
          <mxGeometry x="90" y="360" width="210" height="160" as="geometry" />
        </mxCell>
        <mxCell id="JSLHKIPJsOZaojgvG78n-9" value="&lt;span style=&quot;font-size: 18px;&quot;&gt;&lt;b&gt;Jenkins Server&lt;/b&gt;&lt;/span&gt;" style="rounded=1;whiteSpace=wrap;html=1;" parent="1" vertex="1">
          <mxGeometry x="430" y="360" width="145" height="160" as="geometry" />
        </mxCell>
        <mxCell id="JSLHKIPJsOZaojgvG78n-10" value="&lt;font style=&quot;font-size: 18px&quot;&gt;&lt;b&gt;CodeDeploy&lt;/b&gt;&lt;/font&gt;" style="rounded=1;whiteSpace=wrap;html=1;" parent="1" vertex="1">
          <mxGeometry x="720" y="360" width="130" height="160" as="geometry" />
        </mxCell>
        <mxCell id="JSLHKIPJsOZaojgvG78n-28" style="edgeStyle=orthogonalEdgeStyle;rounded=0;orthogonalLoop=1;jettySize=auto;html=1;entryX=0.5;entryY=0;entryDx=0;entryDy=0;" parent="1" source="JSLHKIPJsOZaojgvG78n-13" target="JSLHKIPJsOZaojgvG78n-10" edge="1">
          <mxGeometry relative="1" as="geometry" />
        </mxCell>
        <mxCell id="JSLHKIPJsOZaojgvG78n-13" value="&lt;font style=&quot;font-size: 18px&quot;&gt;&lt;b&gt;S3 Bucket(Artifact)&lt;/b&gt;&lt;/font&gt;" style="rounded=1;whiteSpace=wrap;html=1;" parent="1" vertex="1">
          <mxGeometry x="355" y="80" width="220" height="90" as="geometry" />
        </mxCell>
        <mxCell id="JSLHKIPJsOZaojgvG78n-33" value="&lt;span style=&quot;color: rgb(0 , 0 , 0) ; font-family: &amp;#34;helvetica&amp;#34; ; font-size: 14px ; font-style: normal ; font-weight: 400 ; letter-spacing: normal ; text-align: center ; text-indent: 0px ; text-transform: none ; word-spacing: 0px ; background-color: rgb(248 , 249 , 250) ; display: inline ; float: none&quot;&gt;build artifact&lt;/span&gt;" style="text;whiteSpace=wrap;html=1;rotation=90;" parent="1" vertex="1">
          <mxGeometry x="400" y="300" width="150" height="30" as="geometry" />
        </mxCell>
        <mxCell id="JSLHKIPJsOZaojgvG78n-34" value="&lt;meta charset=&quot;utf-8&quot;&gt;&lt;span style=&quot;color: rgb(0, 0, 0); font-family: helvetica; font-size: 14px; font-style: normal; font-weight: 400; letter-spacing: normal; text-align: center; text-indent: 0px; text-transform: none; word-spacing: 0px; background-color: rgb(248, 249, 250); display: inline; float: none;&quot;&gt;build artifact&lt;/span&gt;" style="text;whiteSpace=wrap;html=1;" parent="1" vertex="1">
          <mxGeometry x="650" y="95" width="100" height="30" as="geometry" />
        </mxCell>
        <mxCell id="JSLHKIPJsOZaojgvG78n-36" value="&lt;b&gt;&lt;font style=&quot;font-size: 14px&quot;&gt;STAGE 1&lt;/font&gt;&lt;/b&gt;" style="text;html=1;align=center;verticalAlign=middle;resizable=0;points=[];autosize=1;" parent="1" vertex="1">
          <mxGeometry x="140" y="490" width="70" height="20" as="geometry" />
        </mxCell>
        <mxCell id="JSLHKIPJsOZaojgvG78n-37" value="&lt;b&gt;&lt;font style=&quot;font-size: 14px&quot;&gt;STAGE 2&lt;/font&gt;&lt;/b&gt;" style="text;html=1;align=center;verticalAlign=middle;resizable=0;points=[];autosize=1;" parent="1" vertex="1">
          <mxGeometry x="460" y="490" width="70" height="20" as="geometry" />
        </mxCell>
        <mxCell id="JSLHKIPJsOZaojgvG78n-38" value="&lt;font style=&quot;font-size: 14px&quot;&gt;&lt;b&gt;STAGE 3&lt;/b&gt;&lt;/font&gt;" style="text;html=1;align=center;verticalAlign=middle;resizable=0;points=[];autosize=1;" parent="1" vertex="1">
          <mxGeometry x="750" y="490" width="70" height="20" as="geometry" />
        </mxCell>
        <mxCell id="KIu6qLOIrCntr93R49Zv-1" value="" style="endArrow=classic;html=1;rounded=0;exitX=1.005;exitY=0.656;exitDx=0;exitDy=0;exitPerimeter=0;entryX=-0.034;entryY=0.644;entryDx=0;entryDy=0;entryPerimeter=0;" edge="1" parent="1" source="JSLHKIPJsOZaojgvG78n-1" target="JSLHKIPJsOZaojgvG78n-9">
          <mxGeometry width="50" height="50" relative="1" as="geometry">
            <mxPoint x="770" y="410" as="sourcePoint" />
            <mxPoint x="820" y="360" as="targetPoint" />
          </mxGeometry>
        </mxCell>
        <mxCell id="KIu6qLOIrCntr93R49Zv-3" value="&lt;span style=&quot;color: rgb(0, 0, 0); font-family: helvetica; font-size: 14px; font-style: normal; font-weight: 400; letter-spacing: normal; text-align: center; text-indent: 0px; text-transform: none; word-spacing: 0px; background-color: rgb(248, 249, 250); display: inline; float: none;&quot;&gt;web hook&lt;/span&gt;" style="text;whiteSpace=wrap;html=1;" vertex="1" parent="1">
          <mxGeometry x="330" y="470" width="100" height="30" as="geometry" />
        </mxCell>
        <mxCell id="KIu6qLOIrCntr93R49Zv-4" value="" style="endArrow=classic;html=1;rounded=0;exitX=0.428;exitY=0;exitDx=0;exitDy=0;exitPerimeter=0;entryX=0.614;entryY=1.056;entryDx=0;entryDy=0;entryPerimeter=0;" edge="1" parent="1" source="JSLHKIPJsOZaojgvG78n-9" target="JSLHKIPJsOZaojgvG78n-13">
          <mxGeometry width="50" height="50" relative="1" as="geometry">
            <mxPoint x="770" y="410" as="sourcePoint" />
            <mxPoint x="820" y="360" as="targetPoint" />
          </mxGeometry>
        </mxCell>
        <mxCell id="KIu6qLOIrCntr93R49Zv-5" value="" style="endArrow=classic;html=1;rounded=0;exitX=1.005;exitY=0.656;exitDx=0;exitDy=0;exitPerimeter=0;entryX=-0.023;entryY=0.569;entryDx=0;entryDy=0;entryPerimeter=0;" edge="1" parent="1" target="JSLHKIPJsOZaojgvG78n-10">
          <mxGeometry width="50" height="50" relative="1" as="geometry">
            <mxPoint x="575" y="452" as="sourcePoint" />
            <mxPoint x="699" y="450" as="targetPoint" />
          </mxGeometry>
        </mxCell>
      </root>
    </mxGraphModel>
  </diagram>
</mxfile>
